<svg width="18" height="18" viewBox="0 0 18 18" fill="none" xmlns="http://www.w3.org/2000/svg">
<path d="M15.0088 17C16.1134 17 17.0088 16.1046 17.0088 15C17.0088 13.8954 16.1134 13 15.0088 13C13.9042 13 13.0088 13.8954 13.0088 15C13.0088 16.1046 13.9042 17 15.0088 17Z" fill="#34A853"/>
<path d="M9.00879 13C10.6656 13 12.0088 11.6569 12.0088 10C12.0088 8.34315 10.6656 7 9.00879 7C7.35193 7 6.00879 8.34315 6.00879 10C6.00879 11.6569 7.35193 13 9.00879 13Z" fill="#4285F4"/>
<path d="M0 13.9C0 16.1637 1.83625 18 4.1 18H9V16L3.9875 15.9875C2.8875 15.9875 2 14.9638 2 13.75V11.5H0V13.9Z" fill="#EA4335"/>
<path d="M18 6.1C18 3.83625 16.1637 2 13.9 2H11.5L14 4C15.1 4 16 5.03625 16 6.25V10H18V6.1Z" fill="#FBBC04"/>
<path d="M11 0H7L5.5 2H4.1C1.83625 2 0 3.83625 0 6.1V8.5H2V6.25C2 5.03625 2.9 4 4 4H14L11 0Z" fill="#4285F4"/>
</svg>
