<svg width="25" height="25" viewBox="0 0 25 25" fill="none" xmlns="http://www.w3.org/2000/svg">
<path d="M6.5 8.56C7.6 8.56 8.5 7.66 8.5 6.56C8.5 5.46 7.6 4.56 6.5 4.56C5.4 4.56 4.5 5.46 4.5 6.56C4.5 7.66 5.4 8.56 6.5 8.56ZM12.5 20.56C13.6 20.56 14.5 19.66 14.5 18.56C14.5 17.46 13.6 16.56 12.5 16.56C11.4 16.56 10.5 17.46 10.5 18.56C10.5 19.66 11.4 20.56 12.5 20.56ZM6.5 20.56C7.6 20.56 8.5 19.66 8.5 18.56C8.5 17.46 7.6 16.56 6.5 16.56C5.4 16.56 4.5 17.46 4.5 18.56C4.5 19.66 5.4 20.56 6.5 20.56ZM6.5 14.56C7.6 14.56 8.5 13.66 8.5 12.56C8.5 11.46 7.6 10.56 6.5 10.56C5.4 10.56 4.5 11.46 4.5 12.56C4.5 13.66 5.4 14.56 6.5 14.56ZM12.5 14.56C13.6 14.56 14.5 13.66 14.5 12.56C14.5 11.46 13.6 10.56 12.5 10.56C11.4 10.56 10.5 11.46 10.5 12.56C10.5 13.66 11.4 14.56 12.5 14.56ZM16.5 6.56C16.5 7.66 17.4 8.56 18.5 8.56C19.6 8.56 20.5 7.66 20.5 6.56C20.5 5.46 19.6 4.56 18.5 4.56C17.4 4.56 16.5 5.46 16.5 6.56ZM12.5 8.56C13.6 8.56 14.5 7.66 14.5 6.56C14.5 5.46 13.6 4.56 12.5 4.56C11.4 4.56 10.5 5.46 10.5 6.56C10.5 7.66 11.4 8.56 12.5 8.56ZM18.5 14.56C19.6 14.56 20.5 13.66 20.5 12.56C20.5 11.46 19.6 10.56 18.5 10.56C17.4 10.56 16.5 11.46 16.5 12.56C16.5 13.66 17.4 14.56 18.5 14.56ZM18.5 20.56C19.6 20.56 20.5 19.66 20.5 18.56C20.5 17.46 19.6 16.56 18.5 16.56C17.4 16.56 16.5 17.46 16.5 18.56C16.5 19.66 17.4 20.56 18.5 20.56Z" fill="#444746"/>
</svg>
